<svg width="46" height="40" viewBox="0 0 46 40" fill="none" xmlns="http://www.w3.org/2000/svg">
<path d="M45.7925 26.8834C45.7925 33.8032 40.1829 39.4127 33.2632 39.4127L14.4694 39.4127C12.5472 39.4127 10.989 37.8545 10.989 35.9323L10.989 12.266C10.989 8.42169 14.1054 5.30528 17.9497 5.30528L42.3121 5.30529C44.2343 5.30529 45.7925 6.86349 45.7925 8.78563L45.7925 26.8834Z" fill="#E8F5E9"/>
<path d="M19.2836 13.6657C19.0665 13.6657 18.8899 13.4894 18.8899 13.2719V12.6028C18.8899 12.3856 19.0662 12.209 19.2836 12.209C19.5008 12.209 19.6774 12.3853 19.6774 12.6028V13.2719C19.6774 13.4894 19.5008 13.6657 19.2836 13.6657Z" fill="#103E13"/>
<path d="M17.6281 13.6657C17.4109 13.6657 17.2344 13.4894 17.2344 13.2719V12.6028C17.2344 12.3856 17.4107 12.209 17.6281 12.209C17.8453 12.209 18.0219 12.3853 18.0219 12.6028V13.2719C18.0216 13.4894 17.8456 13.6657 17.6281 13.6657Z" fill="#103E13"/>
<path d="M15.9729 13.6657C15.7557 13.6657 15.5791 13.4894 15.5791 13.2719V12.6028C15.5791 12.3856 15.7554 12.209 15.9729 12.209C16.19 12.209 16.3666 12.3853 16.3666 12.6028V13.2719C16.3666 13.4894 16.1903 13.6657 15.9729 13.6657Z" fill="#103E13"/>
<path d="M19.2836 16.402C19.0665 16.402 18.8899 16.2258 18.8899 16.0083V15.3394C18.8899 15.1222 19.0662 14.9457 19.2836 14.9457C19.5008 14.9457 19.6774 15.1219 19.6774 15.3394V16.0083C19.6774 16.2258 19.5008 16.402 19.2836 16.402Z" fill="#103E13"/>
<path d="M17.6281 16.402C17.4109 16.402 17.2344 16.2258 17.2344 16.0083V15.3394C17.2344 15.1222 17.4107 14.9457 17.6281 14.9457C17.8453 14.9457 18.0219 15.1219 18.0219 15.3394V16.0083C18.0216 16.2258 17.8456 16.402 17.6281 16.402Z" fill="#103E13"/>
<path d="M15.9729 16.402C15.7557 16.402 15.5791 16.2258 15.5791 16.0083V15.3394C15.5791 15.1222 15.7554 14.9457 15.9729 14.9457C16.19 14.9457 16.3666 15.1219 16.3666 15.3394V16.0083C16.3666 16.2258 16.1903 16.402 15.9729 16.402Z" fill="#103E13"/>
<path d="M19.2836 19.1385C19.0665 19.1385 18.8899 18.9622 18.8899 18.7447V18.0756C18.8899 17.8584 19.0662 17.6819 19.2836 17.6819C19.5008 17.6819 19.6774 17.8581 19.6774 18.0756V18.7447C19.6774 18.9622 19.5008 19.1385 19.2836 19.1385Z" fill="#103E13"/>
<path d="M17.6281 19.1385C17.4109 19.1385 17.2344 18.9622 17.2344 18.7447V18.0756C17.2344 17.8584 17.4107 17.6819 17.6281 17.6819C17.8453 17.6819 18.0219 17.8581 18.0219 18.0756V18.7447C18.0216 18.9622 17.8456 19.1385 17.6281 19.1385Z" fill="#103E13"/>
<path d="M15.9729 19.1385C15.7557 19.1385 15.5791 18.9622 15.5791 18.7447V18.0756C15.5791 17.8584 15.7554 17.6819 15.9729 17.6819C16.19 17.6819 16.3666 17.8581 16.3666 18.0756V18.7447C16.3666 18.9622 16.1903 19.1385 15.9729 19.1385Z" fill="#103E13"/>
<path d="M19.2836 21.8743C19.0665 21.8743 18.8899 21.6981 18.8899 21.4806V20.8114C18.8899 20.5943 19.0662 20.4177 19.2836 20.4177C19.5008 20.4177 19.6774 20.594 19.6774 20.8114V21.4806C19.6774 21.6981 19.5008 21.8743 19.2836 21.8743Z" fill="#103E13"/>
<path d="M17.6281 21.8743C17.4109 21.8743 17.2344 21.6981 17.2344 21.4806V20.8114C17.2344 20.5943 17.4107 20.4177 17.6281 20.4177C17.8453 20.4177 18.0219 20.594 18.0219 20.8114V21.4806C18.0216 21.6981 17.8456 21.8743 17.6281 21.8743Z" fill="#103E13"/>
<path d="M15.9729 21.8743C15.7557 21.8743 15.5791 21.6981 15.5791 21.4806V20.8114C15.5791 20.5943 15.7554 20.4177 15.9729 20.4177C16.19 20.4177 16.3666 20.594 16.3666 20.8114V21.4806C16.3666 21.6981 16.1903 21.8743 15.9729 21.8743Z" fill="#103E13"/>
<path d="M19.2836 24.6107C19.0665 24.6107 18.8899 24.4344 18.8899 24.217V23.5481C18.8899 23.3309 19.0662 23.1544 19.2836 23.1544C19.5008 23.1544 19.6774 23.3306 19.6774 23.5481V24.217C19.6774 24.4342 19.5008 24.6107 19.2836 24.6107Z" fill="#103E13"/>
<path d="M17.6281 24.6107C17.4109 24.6107 17.2344 24.4344 17.2344 24.217V23.5481C17.2344 23.3309 17.4107 23.1544 17.6281 23.1544C17.8453 23.1544 18.0219 23.3306 18.0219 23.5481V24.217C18.0216 24.4342 17.8456 24.6107 17.6281 24.6107Z" fill="#103E13"/>
<path d="M15.9729 24.6107C15.7557 24.6107 15.5791 24.4344 15.5791 24.217L15.5794 23.5481C15.5794 23.3309 15.7557 23.1544 15.9731 23.1544C16.1903 23.1544 16.3669 23.3306 16.3669 23.5481V24.217C16.3666 24.4342 16.1903 24.6107 15.9729 24.6107Z" fill="#103E13"/>
<path d="M4.7247 27.3339C4.7247 27.5511 4.90097 27.7276 5.11844 27.7276H29.0965C29.3137 27.7276 29.4902 27.5514 29.4902 27.3339C29.4902 27.1167 29.3139 26.9402 29.0965 26.9402H28.3686V15.6351C28.3686 15.4179 28.1923 15.2413 27.9749 15.2413L21.5462 15.2416V7.09124C21.5462 6.95341 21.4742 6.826 21.3567 6.75461C21.2394 6.68295 21.0928 6.67855 20.9709 6.74198L13.6619 10.5474C13.5315 10.6152 13.4502 10.7497 13.4502 10.8966V18.0158H6.37675C6.15956 18.0158 5.983 18.1921 5.983 18.4096V26.9402H5.11757C4.90038 26.9399 4.72437 27.1162 4.72437 27.3337L4.7247 27.3339ZM21.5463 21.2051H27.5815V26.9405L21.5463 26.9402V21.2051ZM21.5463 18.4689H27.5815V20.4179L21.5463 20.4176V18.4689ZM21.5463 16.0287H27.5815V17.682H21.5463V16.0287ZM14.2373 11.1357L20.7585 7.74027V26.9398H14.2373V11.1357ZM8.71693 23.7953C8.71693 22.9782 9.36439 22.3132 10.1604 22.3132C10.9564 22.3132 11.6041 22.9779 11.6041 23.7953V26.9403H8.71693V23.7953ZM6.77048 18.8032H13.4501V26.9402H12.3916V23.7952C12.3916 22.5439 11.3911 21.5258 10.1604 21.5258C8.93027 21.5258 7.92973 22.5436 7.92973 23.7952V26.9402H6.77048V18.8032Z" fill="#103E13"/>
</svg>
