<svg width="34" height="34" viewBox="0 0 34 34" fill="none" xmlns="http://www.w3.org/2000/svg">
<path d="M7.09082 5.71716H26.9287C28.0104 5.71716 29.0506 6.12058 29.8486 6.84314L30.0049 6.99158C30.8207 7.80739 31.2792 8.91402 31.2793 10.0677V23.641C31.2793 24.7948 30.8207 25.9013 30.0049 26.7172C29.189 27.533 28.0825 27.9916 26.9287 27.9916H7.09082C6.00921 27.9915 4.96889 27.5891 4.1709 26.8666L4.01465 26.7172C3.19896 25.9013 2.74023 24.7947 2.74023 23.641V10.0677C2.74029 8.98604 3.14354 7.94585 3.86621 7.14783L4.01465 6.99158C4.77944 6.22678 5.79986 5.77644 6.875 5.72302L7.09082 5.71716ZM4.13281 23.641C4.13281 24.3275 4.37146 24.9896 4.80273 25.516L4.99902 25.7328C5.55376 26.2875 6.30631 26.5999 7.09082 26.6H26.9287C27.7133 26.6 28.4657 26.2876 29.0205 25.7328C29.5753 25.178 29.8877 24.4256 29.8877 23.641V13.3744H4.13281V23.641ZM22.2305 20.3353H25.3633C25.5015 20.3354 25.6357 20.376 25.749 20.4515L25.8555 20.5385C25.9859 20.6689 26.0585 20.8462 26.0586 21.0306C26.0586 21.2151 25.9857 21.3923 25.8555 21.5228C25.725 21.6533 25.5477 21.7268 25.3633 21.7269H22.2305C22.0459 21.7269 21.8688 21.6533 21.7383 21.5228C21.6079 21.3923 21.5342 21.2151 21.5342 21.0306C21.5343 20.8923 21.5758 20.7583 21.6514 20.6449L21.7383 20.5385C21.8688 20.408 22.046 20.3354 22.2305 20.3353ZM7.09082 7.10974C6.30631 7.1098 5.55376 7.42122 4.99902 7.97595C4.44429 8.53069 4.13287 9.28324 4.13281 10.0677V11.9818H29.8877V10.0677C29.8876 9.3813 29.6491 8.71911 29.2178 8.19275L29.0205 7.97595C28.4657 7.42133 27.7132 7.10974 26.9287 7.10974H7.09082Z" fill="#4CAF4F" stroke="#4CAF4F" stroke-width="0.696069"/>
</svg>
